<svg xmlns="http://www.w3.org/2000/svg" id="cat" viewBox="3.25251 1.047 89.4055 109.453" x="0px" y="0px" width="89.4055" height="109.453" enable-background="new 0 0 95 111" xmlns:xml="http://www.w3.org/XML/1998/namespace" xml:space="preserve" xmlns:xlink="http://www.w3.org/1999/xlink" version="1.1">
  <g>
    <g id="Layer_8">
      <path fill="#faa51d" stroke="#231f20" stroke-width="1.2" d="M 23.754 82.506 c -2.871 -1.402 -10.511 -2.518 -14.771 -6.695 c -9.431 -9.246 -3.824 -21.732 0.704 -21.797 c 3.611 -0.061 3.363 5.482 4.622 11.145 c 0.875 3.939 1.673 6.988 6.407 9.674 c 4.735 2.688 6.918 2.916 6.918 2.916 s 3.258 0.791 1.596 2.562 C 27.568 82.076 23.754 82.506 23.754 82.506 Z"/>
      <path fill="#ffffff" stroke-width="1" d="M 14.291 66.369 c -0.115 -0.459 -0.222 -0.928 -0.33 -1.413 c -1.172 -5.271 -0.941 -10.432 -4.303 -10.377 c -3.433 0.05 -7.53 7.771 -4.19 15.285 c 0.193 -0.143 0.399 -0.336 0.569 -0.588 c 0.451 -0.664 0.821 -2.969 2.654 -3.688 C 9.989 65.082 12.778 65.869 14.291 66.369 Z"/>
    </g>
    <path fill="#faa51d" stroke="#231f20" stroke-width="1.2" d="M 52.543 61.473 c 0 0 1.455 2.342 1.519 4.969 c 0.065 2.723 -0.351 6.984 1.804 8.158 c 3.381 1.842 9.959 -0.463 10.174 5.191 c 0.211 5.652 -10.152 3.623 -13.299 2.547 c -2.695 -0.926 -4.559 -1.758 -5.18 -5.182 c 0 0 -3.764 -13.969 -0.196 -15.59 C 50.933 59.945 52.543 61.473 52.543 61.473 Z"/>
    <path fill="#faa51d" stroke="#231f20" stroke-width="1.2" d="M 14.61 89.584 c 0 0 1.504 10.391 -5.922 8.387 c -5.586 -1.51 -5.705 -20.68 -0.406 -20.691 c 3.237 -0.006 4.425 2.859 4.425 2.859 s 4.385 4.812 6.95 4.312 c 2.565 -0.502 7.978 -6.703 7.978 -6.703 s 2.875 -2.539 6.146 0.023 c 3.271 2.561 1.521 6.178 1.521 6.178 s -6.07 7.072 -11.014 8.072 c -4.945 1.002 -9.375 -2.568 -11.58 -3.451"/>
    <g id="Layer_6">
      <path fill="#faa51d" stroke="#231f20" stroke-width="1.2" d="M 42.435 76.238 c 0 0 4.866 4.062 8.166 7.52 c 4.384 4.592 -3.339 15.039 -3.339 15.039 s 11.234 6.467 2.998 11 c -2.657 1.467 -15.661 -13.225 -15.661 -13.225 s 7.979 -7.475 4.972 -10.172 c -4.964 -4.449 -10.771 -4.959 -11.6 -9.824 c -0.502 -2.957 0.613 -4.502 2.658 -7.053 c 1.354 -1.689 2.084 -3.182 2.084 -3.182 s 1.135 -7.238 4.289 -8.254 c 3.153 -1.014 8.842 0.057 10.758 0.395 c 1.914 0.338 6.645 1.877 4.617 9.922 c 0 0 -1.451 3.771 -2.789 5.762 c -1.604 2.389 -2.854 3.924 -4.08 4.867"/>
      <path fill="#ffffff" stroke-width="1" d="M 50.182 72.631 c 0 0 2.55 -2.748 -2.551 -5.494 c -5.102 -2.746 -7.449 -0.016 -9.024 1.572 c -2.731 2.742 3.334 7.453 3.334 7.453 l 3.383 2.564 c 0 0 1.916 -1.582 2.701 -2.957 C 48.807 74.396 50.182 72.631 50.182 72.631"/>
    </g>
    <path fill="#faa51d" stroke="#231f20" stroke-width="1.2" d="M 24.428 65.395 c 0.939 0.057 3.625 0.213 6.064 0.391 c 3.014 0.217 8.451 -0.451 5.801 -5.098 c -2.649 -4.65 -6.74 -3.674 -11.961 -3.754 c -2.812 -0.043 -5.785 -1.412 -7.322 1.895 c -1.534 3.312 -5.051 13.338 2.313 15.396 c 7.366 2.057 4.618 -8.137 4.95 -10.457"/>
    <g id="Layer_2">
      <path fill="#faa51d" stroke="#231f20" stroke-width="1.2" d="M 51.709 10.156 c -1.54 -0.143 -4.75 -0.316 -6.518 -0.231 c -4.728 0.225 -9.224 1.928 -9.224 1.928 L 22.949 3.357 l 2.235 18.906 c 0.646 -0.782 -10.555 12.804 -3.479 24.224 c 7.08 11.426 22.233 16.518 40.988 12.792 c 18.755 -3.728 23.229 -14.531 21.986 -20.246 c -1.242 -5.714 -8.322 -7.823 -8.322 -7.823 s -0.09 -4.48 -3.328 -9.97 c -1.926 -3.268 -8.348 -8.041 -8.348 -8.041 L 61.822 1.647 L 54.37 8.851 L 51.709 10.156 Z"/>
      <path fill="#ffffff" stroke-width="1" d="M 75.42 31.066 l -2.483 -2.064 l -9.115 2.661 c 0 0 0 3.419 -4.367 4.367 c -4.37 0.951 -11.211 -2.277 -11.211 -2.277 l -7.784 3.417 c 0 0 -8.437 0.928 -8.739 6.081 C 31.048 54.704 45.1 59.478 50.425 59.783 c 2.905 0.167 8.235 -0.337 12.277 -1.14 c 17.752 -3.235 22.551 -13.92 21.309 -19.635 c -1.242 -5.714 -7.977 -7.196 -7.977 -7.196 L 75.42 31.066 Z"/>
      <path fill="none" stroke="#231f20" stroke-width="1.2" d="M 9.673 42.155 c 0 0 4.107 0.374 5.974 0.268 c 1.865 -0.107 5.492 -0.587 5.492 -0.587"/>
      <path fill="none" stroke="#231f20" stroke-width="1.2" d="M 80.656 36.671 c 0 0 4.549 -0.743 6.859 -1.549 c 2.715 -0.942 4.543 -2.545 4.543 -2.545"/>
      <path fill="none" stroke="#231f20" stroke-width="1.2" d="M 21.337 37.909 c 0 0 -2.384 -1.777 -6.117 -3.43 c -4.134 -1.831 -6.405 -2.303 -6.405 -2.303"/>
      <path fill="none" stroke="#231f20" stroke-width="1.2" d="M 81.117 42.622 c 0 0 2.726 1.104 5.533 1.385 c 2.77 0.276 4.647 0.11 4.647 0.11"/>
      <path fill="none" stroke="#000000" stroke-linecap="round" stroke-miterlimit="10" stroke-width="1" d="M 51.349 10.212 c 2.84 0.7 3.888 1.469 3.888 1.469"/>
      <line fill="none" stroke="#000000" stroke-width="1" x1="32.898" y1="9.684" x2="38.956" y2="14.042"/>
    </g>
    <g id="Layer_5">
      <path fill="#ffffff" stroke="#231f20" stroke-width="1" d="M 70.84 21.366 c 2.924 4.479 3.033 9.591 0.242 11.415 c -2.793 1.825 -7.426 -0.332 -10.354 -4.813 c -2.932 -4.48 -3.037 -9.589 -0.244 -11.415 C 63.275 14.73 67.913 16.884 70.84 21.366 Z"/>
      <path fill="#231f20" stroke-width="1" d="M 70.089 28.522 c 0 1.08 -0.802 1.956 -1.8 1.956 c -0.993 0 -1.803 -0.877 -1.803 -1.956 c 0 -1.08 0.81 -1.958 1.803 -1.958 C 69.287 26.564 70.089 27.442 70.089 28.522"/>
    </g>
    <g id="Layer_7">
      <path fill="#ffffff" stroke="#231f20" stroke-width="1" d="M 46.867 24.619 c 2.926 4.48 2.619 9.862 -0.681 12.015 c -3.302 2.159 -8.351 0.272 -11.276 -4.208 c -2.928 -4.48 -2.624 -9.86 0.678 -12.017 C 38.891 18.253 43.938 20.137 46.867 24.619 Z"/>
      <path fill="#231f20" stroke-width="1" d="M 45.079 30.507 c 0 1.081 -0.803 1.957 -1.801 1.957 c -0.992 0 -1.803 -0.878 -1.803 -1.957 c 0 -1.08 0.811 -1.957 1.803 -1.957 C 44.274 28.55 45.079 29.427 45.079 30.507"/>
    </g>
    <path fill="#5e4a42" stroke="#000000" stroke-width="1" d="M 58.766 33.926 c 1.854 0 4.555 -0.284 4.697 0.569 c 0.143 0.855 -1.709 4.203 -2.988 4.345 c -1.283 0.142 -6.125 -2.353 -6.195 -3.919 C 54.206 33.355 57.055 33.926 58.766 33.926 Z"/>
    <g id="Layer_4">
      <path fill="none" stroke="#231f20" stroke-width="1.2" d="M 45.774 41.235 c 0 0 10.347 3.054 14.217 3.897 c 3.868 0.842 10.851 1.684 10.851 1.684 s -7.99 10.245 -17.328 7.644 C 44.176 51.863 44.345 45.975 45.774 41.235 Z"/>
    </g>
  </g>
</svg>