<svg xmlns="http://www.w3.org/2000/svg" id="ghost2-a" viewBox="4.50155 2.5001 138.997 141.554" x="0px" y="0px" width="138.997" height="141.554" enable-background="new 0 0 150 150" xmlns:xml="http://www.w3.org/XML/1998/namespace" xml:space="preserve" xmlns:xlink="http://www.w3.org/1999/xlink" version="1.1">
  <g>
    <g id="Back_Arm">
      <path id="Fill_1_" fill="#ffffff" stroke-width="1" d="M 104.482 102.611 c 2.229 5.01 7.834 12.349 13.187 12.563 c 8.196 0.341 6.39 -15.86 2.271 -20.319 c 0.623 -0.963 1.592 -1.527 2.537 -1.994 c -0.067 -0.127 -0.133 -0.254 -0.207 -0.383 c -7.352 0 -11.602 -4.812 -20.734 10.586 c 0.227 0.375 0.461 0.756 0.701 1.139 C 102.467 103.359 103.168 102.775 104.482 102.611 Z"/>
      <path id="Outline_1_" fill="#272525" stroke-width="1" d="M 122.65 92.773 c -0.059 0.026 -0.116 0.061 -0.174 0.088 c -0.947 0.467 -1.916 1.031 -2.537 1.994 c 4.119 4.459 5.926 20.66 -2.271 20.319 c -5.354 -0.216 -10.958 -7.555 -13.188 -12.563 c -1.313 0.164 -2.016 0.748 -2.246 1.592 c -1.174 4.268 9.94 15.324 17.391 14.062 C 129.066 116.667 126.758 94.811 122.65 92.773 Z"/>
    </g>
    <g id="Body">
      <path id="Fill" fill="#ffffff" stroke-width="1" d="M 111.335 8.063 c -13.046 -2.121 -24.533 5.324 -32.29 17.342 c -5.518 8.546 -2.722 15.869 -4.417 25.133 c -1.342 7.339 -10.915 6.836 -13.568 14.181 c -2.897 8.021 2.454 17.283 -4.915 23.375 c -4.283 3.541 -7.678 0.791 -11.923 -1.146 c -4.05 -1.851 -8.738 -1.189 -12.301 1.724 c -5.104 4.176 -6.654 15.621 -14.51 14.438 c -3.124 -0.473 -7.003 -4.479 -7.444 -8.26 c -1.366 1.787 -1.719 4.383 -1.514 6.68 c 0.443 4.937 4.387 9.815 8.327 11.562 c 6.961 3.085 11.949 -3.897 18.358 -1.723 c 14.051 4.767 15.039 29.586 36.725 27.301 c 13.575 -1.433 17.952 -26.298 23.079 -32.117 c 5.513 -6.245 11.104 -7.493 17.412 -10.125 c 27.383 -11.411 30.15 -42.578 24.371 -67.759 C 135.486 23.282 130.689 11.211 111.335 8.063 Z"/>
      <path id="Outline" fill="#272525" stroke-width="1" d="M 133.958 14.649 C 120.889 -3.95 85.757 0.749 75.827 21.46 c -2.245 4.684 -3.673 7.441 -3.911 12.926 c -0.157 3.646 0.933 14.322 -0.314 16.875 c -1.68 3.438 -9.609 4.448 -12.996 8.617 c -4.24 5.218 -0.346 12.524 -1.199 18.455 c -0.411 2.86 -2.529 6.347 -5.047 7.181 c -4.308 1.43 -9.359 -7.438 -18.951 -3.334 c -7.547 3.23 -8.523 18.232 -16.754 16.764 c -3.232 -0.574 -5.116 -4.604 -5.995 -8.18 c -2.869 3.256 -6.5 9.771 -5.484 14.571 c 1.547 7.33 6.365 12.899 13.752 14.004 c 4.809 0.718 9.205 -4.825 19.052 -1.582 c 12.573 4.144 14.981 28.796 34.254 25.494 c 7.3 -1.252 13.018 -8.571 16.211 -15.87 c 3.301 -7.544 6.767 -12.843 12.238 -18.6 c 15.129 -15.92 34.53 -6.858 41.065 -44.057 C 144.148 51.069 143.855 28.733 133.958 14.649 Z M 112.354 96.425 c -6.31 2.632 -11.899 3.88 -17.412 10.125 c -5.127 5.819 -9.504 30.685 -23.079 32.117 c -21.686 2.285 -22.674 -22.534 -36.725 -27.301 c -6.409 -2.175 -11.397 4.808 -18.358 1.723 c -3.94 -1.745 -7.884 -6.625 -8.327 -11.562 c -0.205 -2.297 0.148 -4.893 1.514 -6.68 c 0.441 3.781 4.32 7.787 7.444 8.26 c 7.856 1.185 9.406 -10.262 14.51 -14.438 c 3.563 -2.913 8.251 -3.572 12.301 -1.724 c 4.245 1.938 7.64 4.688 11.923 1.146 C 63.514 82 58.163 72.738 61.06 64.717 c 2.653 -7.345 12.226 -6.842 13.568 -14.181 c 1.695 -9.264 -1.101 -16.587 4.417 -25.133 c 7.757 -12.018 19.244 -19.463 32.29 -17.342 c 19.354 3.148 24.151 15.219 25.39 20.603 C 142.504 53.847 139.736 85.014 112.354 96.425 Z"/>
    </g>
    <g id="Mouth">
      <path id="Inside" fill="#426eb9" stroke-width="1" d="M 114.562 66.825 c 0.179 -1.612 -0.029 -3.341 0.504 -4.883 c -3.236 -0.957 -8.051 -2.767 -10.773 -5.086 c 0 0 -0.621 6.06 1.131 9.442 C 109.912 61.538 111.958 67.716 114.562 66.825 Z"/>
      <path id="Tongue" fill="#93659b" stroke-width="1" d="M 114.121 69.411 c -0.564 1.058 -0.094 1.898 -1.072 3.231 c -0.332 -3.054 -2.915 -7.82 -6.367 -3.911 c 1.801 3.883 4.023 6.581 9.678 7.725 C 117.634 74.328 117.04 68.756 114.121 69.411 Z"/>
      <path id="Outline_3_" fill="#272525" stroke-width="1" d="M 122.891 60.797 c 1.846 -0.922 6.668 -4.605 5.805 -7.469 c -0.18 -0.597 -0.975 -1.617 -1.389 -1.148 c -8.731 9.917 -17.641 4.466 -24.896 0.815 c -2.136 14.592 1.132 19.315 6.604 24.819 c 3.732 3.756 15.156 4.793 14.064 -0.146 c -0.428 -1.922 -3.227 -0.904 -4.415 -1.363 c 1.709 -2.964 1.343 -7.504 -1.733 -9.006 c 0 -1.931 0.312 -3.362 1.029 -5.093 C 119.514 61.934 121.423 61.525 122.891 60.797 Z M 105.424 66.298 c -1.752 -3.382 -1.131 -9.442 -1.131 -9.442 c 2.723 2.319 7.537 4.129 10.773 5.086 c -0.533 1.542 -0.325 3.271 -0.504 4.883 C 111.958 67.716 109.912 61.538 105.424 66.298 Z M 116.359 76.456 c -5.654 -1.144 -7.877 -3.842 -9.678 -7.725 c 3.451 -3.909 6.034 0.857 6.366 3.911 c 0.979 -1.333 0.509 -2.173 1.072 -3.231 C 117.04 68.756 117.634 74.328 116.359 76.456 Z"/>
    </g>
    <g id="R_Eye">
      <path id="White_1_" fill="#ffffff" stroke-width="1" d="M 129.128 34.396 c -4.724 -3.114 -7.926 7.714 -3.219 10.725 C 132.204 49.146 133.749 37.443 129.128 34.396 Z"/>
      <ellipse id="Pupil_1_" fill="#272525" stroke-width="1" cx="127.973" cy="40.258" rx="1.18" ry="2.146"/>
      <path id="Outline_5_" fill="#272525" stroke-width="1" d="M 131.309 31.674 c -6.357 -6.681 -13.41 4.909 -9.086 13.423 c 1.324 2.61 4.537 4.174 7.062 3.785 C 135.916 47.86 135.307 35.876 131.309 31.674 Z M 125.909 45.121 c -4.707 -3.011 -1.505 -13.839 3.219 -10.725 C 133.749 37.443 132.204 49.146 125.909 45.121 Z"/>
    </g>
    <g id="L_Eye">
      <path id="White" fill="#ffffff" stroke-width="1" d="M 96.16 42.57 c 5.332 7.155 11.261 -4.488 7.38 -9.838 C 99.575 27.268 92.174 37.223 96.16 42.57 Z"/>
      <ellipse id="Pupil" fill="#272525" stroke-width="1" cx="99.96" cy="38.257" rx="1.571" ry="2.861"/>
      <path id="Outline_4_" fill="#272525" stroke-width="1" d="M 106.887 30.867 c -4.434 -9.989 -16.266 -1.002 -14.699 9.981 c 0.479 3.367 3.379 6.5 6.244 7.253 C 105.968 50.084 109.671 37.148 106.887 30.867 Z M 96.16 42.57 c -3.986 -5.347 3.415 -15.302 7.38 -9.838 C 107.421 38.082 101.492 49.725 96.16 42.57 Z"/>
    </g>
    <g id="Front_Arm">
      <path id="Fill_2_" fill="#ffffff" stroke-width="1" d="M 70.844 73.163 c 0.404 3.958 -3.706 12.442 0.314 19.461 c 1.854 3.235 6.296 5.784 9.715 4.812 c 7.266 -2.064 7.598 -14.812 8.58 -21.398 c 0.625 -0.661 1.163 -1.068 1.625 -1.268 c -8.212 -13.383 -17.791 -5.692 -20.886 -2.599 C 70.53 72.352 70.792 72.658 70.844 73.163 Z"/>
      <path id="Outline_2_" fill="#272525" stroke-width="1" d="M 91.078 74.769 c -0.462 0.2 -1 0.607 -1.625 1.268 c -0.982 6.588 -1.314 19.334 -8.58 21.398 c -3.419 0.974 -7.861 -1.576 -9.715 -4.812 c -4.02 -7.019 0.09 -15.503 -0.314 -19.461 c -0.052 -0.505 -0.312 -0.811 -0.651 -0.993 c -0.261 -0.141 -0.567 -0.209 -0.863 -0.227 c -7.108 4.114 -3.757 32.385 9.716 32.385 C 90.047 104.328 96.952 72.233 91.078 74.769 Z"/>
    </g>
  </g>
</svg>