<svg xmlns="http://www.w3.org/2000/svg" id="cat" viewBox="0.814782 5.047 92.8432 100.57" x="0px" y="0px" width="92.8432" height="100.57" enable-background="new 0 0 95 111" xmlns:xml="http://www.w3.org/XML/1998/namespace" xml:space="preserve" xmlns:xlink="http://www.w3.org/1999/xlink" version="1.1">
  <g>
    <g id="Layer_3">
      <path fill="#faa51d" stroke="#000000" stroke-width="1" d="M 22.462 79.039 c -2.415 -0.451 -5.304 -1.309 -7.742 -3.503 C 9.268 70.629 7.526 62.535 3.672 64.622 c -3.856 2.088 -3.782 15.165 8.353 19.194 c 4.182 1.391 7.998 1.396 11.091 1.312 c 0.811 -0.025 7.717 -0.654 10.079 -4.074 c 2.361 -3.42 0.719 -4.272 -0.09 -4.744 C 32.295 75.838 25.878 79.677 22.462 79.039 Z"/>
      <path fill="#ffffff" stroke-width="1" d="M 4.236 64.877 c -1.989 0.613 -3.075 4.998 -2.076 8.484 c 0.998 3.49 2.634 5.022 3.863 6.398 c 1.528 1.038 -0.72 -2.402 1.361 -4.15 c 2.075 -1.744 5.733 -0.914 5.733 -0.914 s -2.909 -3.987 -4.57 -6.396 C 6.975 65.988 6.359 64.375 4.236 64.877 Z"/>
    </g>
    <g>
      <path fill="#faa51d" stroke-width="1" d="M 38.217 86.756 c 0 0 -8.832 6.2 -17.071 8.412 l 0.086 0.215 c 1.247 1.824 5.87 7.497 -0.334 9.496 c -5.333 1.717 -15.12 -13.104 -10.821 -15.902 c 2.626 -1.713 4.892 -0.252 4.892 -0.252 s 3.474 -1.07 6.001 -2.345 c 4.303 -2.161 5.784 -3.453 5.784 -3.453 s 4.184 -4.306 6.856 -4.137 C 36.281 78.96 41.669 83.504 38.217 86.756 Z"/>
      <path fill="none" stroke="#231f20" stroke-width="1.2" d="M 21.232 95.383 c 1.247 1.824 5.87 7.497 -0.334 9.496 c -5.333 1.717 -15.329 -13.344 -11.03 -16.145 c 2.626 -1.713 5.101 -0.01 5.101 -0.01 s 3.474 -1.072 6.001 -2.348 c 4.303 -2.161 5.784 -3.453 5.784 -3.453"/>
      <path fill="none" stroke="#231f20" stroke-width="1.2" d="M 38.217 86.756 c 0 0 -10.123 7.107 -18.804 8.819"/>
    </g>
    <path fill="#faa51d" stroke="#231f20" stroke-width="1.2" d="M 52.169 74.885 c 0 0 1.235 0.165 4.744 3.676 c 3.509 3.508 6.026 2.16 8.911 0.724 c 2.877 -1.443 10.537 -6.126 6.49 -9.817 c -4.049 -3.688 -6.207 1.146 -9.715 2.405 c -3.512 1.26 -5.061 -2.487 -6.858 -4.287 c -0.589 -0.593 -1.188 -1.099 -1.729 -1.505 c 0 0 -0.971 -0.76 -1.906 2.79 C 51.172 72.412 50.162 73.415 52.169 74.885 Z"/>
    <g id="Layer_2_1_">
      <path fill="#faa51d" stroke="#231f20" stroke-width="1.2" d="M 46.753 82.012 c 1.188 -0.912 2.397 -2.402 3.951 -4.713 c 1.296 -1.927 2.7 -5.578 2.7 -5.578 c 0.875 -2.521 1.934 -6.576 -1.902 -7.296 c -1.553 -0.291 -4.079 -0.098 -7.67 -0.776 c -3.593 -0.681 -6.798 -2.522 -9.517 2.233 c -2.718 4.757 -9.59 8.271 -1.056 16.563 c 0 0 4.901 3.842 10.764 9.639 c 4.831 4.775 12.045 10.602 12.045 10.602 s 18.972 2.188 19.535 -0.693 c 1.922 -9.79 -14.777 -6.911 -14.777 -6.911 s -4.605 -3.933 -6.725 -5.794 c -3.478 -3.059 -11.125 -10.771 -11.125 -10.771"/>
      <path fill="#ffffff" stroke-width="1" d="M 51.253 75.434 c 0 0 2.47 -2.66 -2.469 -5.317 c -4.939 -2.657 -7.213 -0.017 -8.739 1.521 c -2.644 2.655 3.443 6.611 3.443 6.611 l 3.176 3.204 c 0 0 1.738 -1.647 2.499 -2.979 C 50.036 77.26 51.253 75.434 51.253 75.434"/>
    </g>
    <g id="Layer_8"/>
    <path fill="#faa51d" stroke="#231f20" stroke-width="1.2" d="M 29.926 73.218 c 0.749 -0.571 2.889 -2.202 4.854 -3.657 c 2.428 -1.799 6.117 -5.849 1.077 -7.646 c -5.04 -1.801 -7.507 1.604 -11.519 4.946 c -2.159 1.801 -5.308 2.699 -4.319 6.209 c 0.993 3.511 4.862 13.408 11.789 10.17 c 6.929 -3.239 -1.799 -9.18 -3.06 -11.157"/>
    <g id="Layer_2">
      <path fill="#faa51d" stroke="#231f20" stroke-width="1.2" d="M 52.709 14.156 c -1.54 -0.143 -4.75 -0.316 -6.518 -0.231 c -4.728 0.225 -9.224 1.928 -9.224 1.928 L 23.949 7.357 l 2.235 18.906 c 0.646 -0.782 -10.555 12.804 -3.479 24.224 c 7.08 11.426 22.233 16.518 40.988 12.792 c 18.755 -3.729 23.229 -14.531 21.986 -20.246 c -1.242 -5.714 -8.322 -7.823 -8.322 -7.823 s -0.09 -4.48 -3.328 -9.97 c -1.926 -3.268 -8.348 -8.041 -8.348 -8.041 L 62.822 5.647 l -7.452 7.204 L 52.709 14.156 Z"/>
      <path fill="#ffffff" stroke-width="1" d="M 76.42 35.066 l -2.482 -2.064 l -9.115 2.661 c 0 0 0 3.419 -4.367 4.367 c -4.37 0.951 -11.211 -2.277 -11.211 -2.277 L 41.46 41.17 c 0 0 -8.437 0.928 -8.739 6.081 C 32.048 58.704 46.1 63.479 51.425 63.783 c 2.905 0.167 8.235 -0.338 12.277 -1.141 c 17.752 -3.234 22.551 -13.919 21.31 -19.635 c -1.242 -5.714 -7.978 -7.196 -7.978 -7.196 L 76.42 35.066 Z"/>
      <path fill="none" stroke="#231f20" stroke-width="1.2" d="M 10.673 46.155 c 0 0 4.107 0.374 5.974 0.268 c 1.865 -0.107 5.492 -0.587 5.492 -0.587"/>
      <path fill="none" stroke="#231f20" stroke-width="1.2" d="M 81.656 40.671 c 0 0 4.549 -0.743 6.859 -1.549 c 2.715 -0.942 4.543 -2.545 4.543 -2.545"/>
      <path fill="none" stroke="#231f20" stroke-width="1.2" d="M 22.337 41.909 c 0 0 -2.384 -1.777 -6.117 -3.43 c -4.134 -1.831 -6.405 -2.303 -6.405 -2.303"/>
      <path fill="none" stroke="#231f20" stroke-width="1.2" d="M 82.117 46.622 c 0 0 2.726 1.104 5.533 1.385 c 2.77 0.276 4.646 0.11 4.646 0.11"/>
      <path fill="none" stroke="#000000" stroke-linecap="round" stroke-miterlimit="10" stroke-width="1" d="M 52.35 14.212 c 2.84 0.7 3.887 1.469 3.887 1.469"/>
      <line fill="none" stroke="#000000" stroke-width="1" x1="33.898" y1="13.684" x2="39.956" y2="18.042"/>
    </g>
    <g id="Layer_5">
      <path fill="#ffffff" stroke="#231f20" stroke-width="1" d="M 71.84 25.366 c 2.924 4.479 3.033 9.591 0.242 11.415 c -2.793 1.825 -7.426 -0.332 -10.354 -4.813 c -2.933 -4.48 -3.037 -9.589 -0.244 -11.415 C 64.275 18.73 68.913 20.884 71.84 25.366 Z"/>
      <path fill="#231f20" stroke-width="1" d="M 71.089 32.522 c 0 1.08 -0.802 1.956 -1.8 1.956 c -0.993 0 -1.803 -0.877 -1.803 -1.956 c 0 -1.08 0.81 -1.958 1.803 -1.958 C 70.287 30.564 71.089 31.442 71.089 32.522"/>
    </g>
    <g id="Layer_7">
      <path fill="#ffffff" stroke="#231f20" stroke-width="1" d="M 47.867 28.619 c 2.926 4.48 2.619 9.862 -0.681 12.015 c -3.302 2.159 -8.351 0.272 -11.276 -4.208 c -2.928 -4.48 -2.624 -9.86 0.678 -12.017 C 39.891 22.253 44.938 24.137 47.867 28.619 Z"/>
      <path fill="#231f20" stroke-width="1" d="M 46.079 34.507 c 0 1.081 -0.803 1.957 -1.801 1.957 c -0.992 0 -1.803 -0.878 -1.803 -1.957 c 0 -1.08 0.811 -1.957 1.803 -1.957 C 45.274 32.55 46.079 33.427 46.079 34.507"/>
    </g>
    <path fill="#5e4a42" stroke="#000000" stroke-width="1" d="M 59.766 37.926 c 1.854 0 4.555 -0.284 4.697 0.569 c 0.143 0.855 -1.709 4.203 -2.988 4.345 c -1.283 0.142 -6.125 -2.353 -6.195 -3.919 C 55.206 37.355 58.055 37.926 59.766 37.926 Z"/>
    <g id="Layer_4">
      <path fill="none" stroke="#231f20" stroke-width="1.2" d="M 46.774 45.235 c 0 0 10.347 3.054 14.217 3.897 c 3.868 0.842 10.851 1.684 10.851 1.684 s -7.99 10.245 -17.328 7.644 C 45.176 55.863 45.345 49.975 46.774 45.235 Z"/>
    </g>
  </g>
</svg>