<svg xmlns="http://www.w3.org/2000/svg" id="apple1" viewBox="-0.5 -0.493215 63.216 64.3682" x="0px" y="0px" width="63.216" height="64.3682" enable-background="new 0 0 62.218 63.375" xmlns:xml="http://www.w3.org/XML/1998/namespace" xml:space="preserve" xmlns:xlink="http://www.w3.org/1999/xlink" version="1.1">
  <g>
    <g id="Apple">
      <path id="Fill_1_" fill="#ec1c2c" stroke-width="1" d="M 59.083 34.402 c 0 14.527 -12.525 26.307 -27.978 26.307 c -15.453 0 -27.977 -11.775 -27.977 -26.307 c 0 -14.527 12.523 -21.275 27.977 -21.275 C 46.557 13.126 59.083 19.876 59.083 34.402 Z"/>
      <g id="Outline_1_">
        <path id="Outline_2_" fill="#231f20" stroke-width="1" d="M 34.285 11.96 c -4.608 -0.391 -9.136 0.189 -9.136 0.189 C 10.821 13.473 0 19.883 0 34.121 c 0 16.156 13.928 29.254 31.107 29.254 c 17.182 0 31.109 -13.098 31.109 -29.254 C 62.216 18.977 49.969 12.69 34.285 11.96 Z M 31.108 59.333 c -14.559 0 -26.357 -11.099 -26.357 -24.785 c 0 -12.064 9.169 -18.433 21.314 -19.774 c 0.249 -0.029 8.456 -0.144 8.456 -0.144 c 12.942 0.936 22.949 7.318 22.949 19.92 C 57.464 48.236 45.666 59.333 31.108 59.333 Z"/>
        <path id="Line" fill="#231f20" stroke-width="1" d="M 40.332 19.062 c -2.303 -0.761 -4.617 -0.241 -6.929 0.389 c -1.916 0.608 -6.112 1.162 -6.19 1.098 c -1.198 -0.058 -2.389 -0.358 -3.571 -1.099 c -0.48 -0.303 -0.982 0.378 -0.598 0.773 c 1.768 1.803 4.068 1.782 6.455 1.514 c 3.575 -0.401 6.993 -0.491 10.561 -0.672 C 41.22 21.004 41.433 19.426 40.332 19.062 Z"/>
      </g>
      <path id="Shine" fill="#ffffff" stroke-width="1" d="M 12.555 34.261 c 0 3.431 1.85 6.212 -0.084 6.212 c -1.934 0 -3.5 -2.781 -3.5 -6.212 c 0 -3.43 1.566 -6.211 3.5 -6.211 C 14.405 28.05 12.555 30.832 12.555 34.261 Z"/>
    </g>
    <g id="Stem">
      <path id="Fill" fill="#99661d" stroke-width="1" d="M 29.515 20.766 c 0.371 -0.066 0.973 -0.13 1.348 -0.219 c 0.062 -4.827 0.538 -9.648 -1.624 -14.212 c -0.592 -1.253 -1.33 -2.354 -2.064 -3.482 c -1.02 0.611 -2.038 1.223 -3.059 1.833 C 28.31 8.982 29.773 14.618 29.515 20.766 Z"/>
      <path id="Outline" fill="#231f20" stroke-width="1" d="M 28.602 0.6 c -0.393 -0.523 -1.078 -0.782 -1.658 -0.435 c -1.805 1.084 -3.607 2.168 -5.414 3.252 c -0.637 0.383 -0.838 1.371 -0.242 1.898 c 3.477 3.091 4.617 6.041 4.9 6.557 c 0.592 1.081 1.592 4.534 1.562 7.749 l 0.046 1.609 c 1.479 0.562 5.25 -0.562 5.25 -0.562 c 0.021 -0.354 0.251 -2.23 0.251 -2.23 C 33.466 17.677 34.13 7.958 28.602 0.6 Z M 30.755 20.38 l -1.109 0.141 v -1.152 c 0.05 -5.714 -1.568 -10.625 -5.53 -14.683 c 1.021 -0.61 2.039 -1.222 3.059 -1.833 c 0.734 1.128 1.472 2.229 2.064 3.482 c 2.012 4.247 1.634 8.375 1.522 12.817 L 30.755 20.38 Z"/>
    </g>
  </g>
</svg>